<svg width="40" height="40" viewBox="0 0 40 40" fill="none" xmlns="http://www.w3.org/2000/svg">
<path d="M33.992 16.04L36.1853 14.844H36.188C37.9053 13.9027 40 15.1507 40 17.1067C40 17.8613 39.6667 18.576 39.096 19.064L39.0947 19.0653L37.8627 20.1267C38.5893 20.5507 39.0933 21.3373 39.0933 22.2667C39.095 22.6994 38.9827 23.1249 38.7679 23.5005C38.553 23.8762 38.2431 24.1887 37.8693 24.4067L37.8667 24.408L34.3693 26.448C34.9333 27.1133 35.3733 27.888 35.6533 28.7373C36.8004 29.4011 37.6972 30.424 38.2054 31.648C38.7135 32.872 38.8048 34.2293 38.465 35.5103C38.1253 36.7913 37.3735 37.925 36.3256 38.7364C35.2777 39.5478 33.992 39.9918 32.6667 40H7.32C7.27333 40 7.22667 40 7.18 39.9973C5.86827 39.9542 4.60623 39.4852 3.58469 38.6612C2.56315 37.8372 1.83766 36.7031 1.51789 35.4302C1.19813 34.1573 1.30147 32.8149 1.81231 31.6059C2.32315 30.397 3.21371 29.3872 4.34933 28.7293C4.62933 27.8827 5.06933 27.1107 5.632 26.4453L2.136 24.396C1.75874 24.1831 1.44485 23.8737 1.2265 23.4995C1.00814 23.1254 0.893162 22.6999 0.893333 22.2667C0.893333 21.3333 1.40133 20.5453 2.13333 20.1213L0.906667 19.0653C0.623417 18.8234 0.395766 18.5231 0.239283 18.1851C0.0828 17.847 0.00117809 17.4792 0 17.1067C0 15.1507 2.09333 13.9027 3.81333 14.8427V14.844L6.00933 16.0387C5.93547 14.5703 6.33102 13.1165 7.13867 11.888C7.57671 11.2102 7.8096 10.4203 7.80933 9.61333C7.80964 7.81771 8.50991 6.09294 9.76143 4.80533C11.0129 3.51771 12.7171 2.76869 14.512 2.71733C15.1562 1.87292 15.9865 1.18846 16.9384 0.717172C17.8902 0.245885 18.9379 0.000467717 20 0C22.2373 0 24.232 1.07467 25.488 2.71733C29.212 2.82133 32.1907 5.89067 32.1907 9.62933C32.1907 10.4253 32.424 11.2147 32.8573 11.8827C33.0973 12.2333 33.284 12.592 33.4413 12.9467L33.4467 12.96C33.8633 13.931 34.0499 14.985 33.992 16.04ZM30.7813 25.8C30.8341 25.6233 30.9236 25.4597 31.044 25.32L29.0627 21.0773L28.6893 21.2773L30.7813 25.8ZM11.4707 21.1827L11.0147 20.94L8.96533 25.328C9.08484 25.4712 9.17296 25.6379 9.224 25.8173L11.4707 21.1827ZM5.52533 22.3693C5.51612 22.3784 5.50679 22.3872 5.49733 22.396L5.61733 22.9667C5.64933 23.1227 5.69333 23.2747 5.75067 23.4227L7.16133 24.2493C7.18999 24.2661 7.21801 24.2838 7.24533 24.3027C7.32533 24.3587 7.408 24.4093 7.496 24.456L7.81867 24.6213L9.80133 20.3747L8.65867 19.752C8.45893 19.8759 8.22985 19.9446 7.99487 19.9509C7.75989 19.9572 7.52745 19.901 7.32133 19.788L3.27467 17.5867L4.656 18.776C5.28407 19.3692 5.71186 20.1433 5.88 20.9907L5.91067 21.1347C5.95696 21.3567 5.94587 21.5868 5.87844 21.8033C5.81101 22.0198 5.68948 22.2155 5.52533 22.372V22.3693ZM32.8293 24.2573L34.2573 23.424C34.3147 23.276 34.36 23.1227 34.392 22.9653L34.5107 22.3987C34.3351 22.2428 34.2038 22.0433 34.1301 21.8204C34.0563 21.5976 34.0427 21.3592 34.0907 21.1293L34.12 20.9893C34.2884 20.1424 34.7162 19.3689 35.344 18.776L36.7253 17.5853L32.6787 19.788C32.4731 19.9 32.2416 19.9559 32.0075 19.95C31.7735 19.9442 31.5451 19.8768 31.3453 19.7547L30.208 20.3733L32.1907 24.616L32.504 24.456C32.5893 24.4107 32.6693 24.3627 32.7467 24.3093C32.7735 24.2905 32.8011 24.2727 32.8293 24.256V24.2573ZM8.85333 28.328L8.75867 28.024C8.68552 27.7905 8.65569 27.5456 8.67067 27.3013L8.652 27.3133C7.94085 27.7608 7.37772 28.4083 7.03333 29.1747L8.85333 28.328ZM7.32 37.3333H9.68L29.6493 28.0227C29.8004 27.9407 29.9144 27.8039 29.9677 27.6404C30.021 27.477 30.0097 27.2993 29.936 27.144L29.932 27.136L27.3987 21.6573C27.3707 21.6 27.3053 21.5253 27.1027 21.5027C26.8514 21.483 26.5995 21.5314 26.3733 21.6427L26.3653 21.6467L5.82533 31.208C5.44669 31.3832 5.08627 31.5953 4.74933 31.8413C4.35499 32.3298 4.10478 32.9186 4.02685 33.5416C3.94893 34.1645 4.04638 34.7968 4.30825 35.3674C4.57011 35.938 4.98601 36.4241 5.50913 36.7712C6.03225 37.1183 6.64185 37.3125 7.26933 37.332H7.29067L7.32 37.3333ZM30.1733 29.2507H30.1707L21.5813 33.256L30.32 37.3333H32.6987C33.4102 37.3184 34.0988 37.0785 34.6657 36.6482C35.2326 36.2179 35.6487 35.6192 35.8545 34.9378C36.0602 34.2565 36.045 33.5275 35.8111 32.8553C35.5771 32.1832 35.1363 31.6023 34.552 31.196C34.4148 31.1183 34.2747 31.0458 34.132 30.9787L30.292 29.1893L30.1733 29.2507ZM20.0027 33.9907L12.8347 37.3333H27.168L20.0027 33.9907ZM32.832 28.9013C32.4826 28.2528 31.9714 27.7058 31.348 27.3133L31.3293 27.3C31.3473 27.5867 31.3041 27.8739 31.2027 28.1427L32.832 28.9013ZM12.6933 21.72L12.6893 21.728L10.292 26.6707L17.592 23.2733L13.592 21.4093L13.5853 21.4053C13.4251 21.3292 13.2412 21.3196 13.0738 21.3785C12.9064 21.4375 12.7692 21.5602 12.692 21.72H12.6933ZM13.4387 10.716L13.4053 10.7307L13.3747 10.7413L13.3707 10.7427L13.3373 10.756L13.3333 10.76L13.2667 10.788C12.9907 10.94 12.3667 11.372 12.3347 12.54L12.3507 13.02V13.024L12.3867 13.944L11.772 14.0147C11.2674 14.076 10.805 14.3272 10.479 14.7172C10.1529 15.1072 9.98763 15.6068 10.0167 16.1143C10.0457 16.6218 10.2669 17.0992 10.6353 17.4495C11.0037 17.7997 11.4917 17.9966 12 18H12.5333L12.6547 18.5133C12.748 18.912 12.8893 19.276 13.0987 19.72L18.068 21.932C18.0857 21.4145 18.3033 20.924 18.6753 20.5637C19.0472 20.2034 19.5444 20.0014 20.0622 20.0002C20.58 19.999 21.0781 20.1987 21.4517 20.5572C21.8253 20.9158 22.0453 21.4052 22.0653 21.9227L26.8453 19.9013C27.059 19.4591 27.2244 18.995 27.3387 18.5173L27.4587 17.9973L27.9907 18H28C28.5113 18.0025 29.0041 17.809 29.3772 17.4594C29.7503 17.1098 29.9753 16.6306 30.006 16.1202C30.0368 15.6098 29.8708 15.1071 29.5424 14.7152C29.2139 14.3234 28.7479 14.0722 28.24 14.0133L27.6387 13.9427L27.6653 12.772C27.6573 11.856 27.3453 11.484 27.1147 11.316C26.9265 11.1816 26.7031 11.1051 26.472 11.096H23.6413C24.948 11.3133 25.96 11.4987 25.96 11.4987C26.2 11.5387 26.36 11.7787 26.32 12.0187C26.28 12.232 26.0933 12.392 25.88 12.392C25.8533 12.392 25.8267 12.392 25.8 12.3787C25.8 12.3787 24.5067 12.1387 22.96 11.8853C22.8437 11.8669 22.7393 11.8034 22.6694 11.7086C22.5995 11.6138 22.5698 11.4952 22.5867 11.3787C22.6058 11.2669 22.6657 11.1662 22.7547 11.096H21.208C20.1441 11.0967 19.0941 10.8542 18.1383 10.3869C17.1825 9.91962 16.3462 9.24001 15.6933 8.4C15.2586 9.42699 14.4539 10.2545 13.4387 10.716Z" fill="#08088F"/>
</svg>
