<svg width="40" height="40" viewBox="0 0 40 40" fill="none" xmlns="http://www.w3.org/2000/svg">
<path d="M5 10C5 8.67392 5.52678 7.40215 6.46447 6.46447C7.40215 5.52678 8.67392 5 10 5H13.75C14.0815 5 14.3995 5.1317 14.6339 5.36612C14.8683 5.60054 15 5.91848 15 6.25C15 6.58152 14.8683 6.89946 14.6339 7.13388C14.3995 7.3683 14.0815 7.5 13.75 7.5H10C9.33696 7.5 8.70107 7.76339 8.23223 8.23223C7.76339 8.70107 7.5 9.33696 7.5 10V13.75C7.5 14.0815 7.3683 14.3995 7.13388 14.6339C6.89946 14.8683 6.58152 15 6.25 15C5.91848 15 5.60054 14.8683 5.36612 14.6339C5.1317 14.3995 5 14.0815 5 13.75V10ZM5 30C5 31.3261 5.52678 32.5979 6.46447 33.5355C7.40215 34.4732 8.67392 35 10 35H13.75C14.0815 35 14.3995 34.8683 14.6339 34.6339C14.8683 34.3995 15 34.0815 15 33.75C15 33.4185 14.8683 33.1005 14.6339 32.8661C14.3995 32.6317 14.0815 32.5 13.75 32.5H10C9.33696 32.5 8.70107 32.2366 8.23223 31.7678C7.76339 31.2989 7.5 30.663 7.5 30V26.25C7.5 25.9185 7.3683 25.6005 7.13388 25.3661C6.89946 25.1317 6.58152 25 6.25 25C5.91848 25 5.60054 25.1317 5.36612 25.3661C5.1317 25.6005 5 25.9185 5 26.25V30ZM30 5C31.3261 5 32.5979 5.52678 33.5355 6.46447C34.4732 7.40215 35 8.67392 35 10V13.75C35 14.0815 34.8683 14.3995 34.6339 14.6339C34.3995 14.8683 34.0815 15 33.75 15C33.4185 15 33.1005 14.8683 32.8661 14.6339C32.6317 14.3995 32.5 14.0815 32.5 13.75V10C32.5 9.33696 32.2366 8.70107 31.7678 8.23223C31.2989 7.76339 30.663 7.5 30 7.5H26.25C25.9185 7.5 25.6005 7.3683 25.3661 7.13388C25.1317 6.89946 25 6.58152 25 6.25C25 5.91848 25.1317 5.60054 25.3661 5.36612C25.6005 5.1317 25.9185 5 26.25 5H30ZM35 30C35 31.3261 34.4732 32.5979 33.5355 33.5355C32.5979 34.4732 31.3261 35 30 35H26.25C25.9185 35 25.6005 34.8683 25.3661 34.6339C25.1317 34.3995 25 34.0815 25 33.75C25 33.4185 25.1317 33.1005 25.3661 32.8661C25.6005 32.6317 25.9185 32.5 26.25 32.5H30C30.663 32.5 31.2989 32.2366 31.7678 31.7678C32.2366 31.2989 32.5 30.663 32.5 30V26.25C32.5 25.9185 32.6317 25.6005 32.8661 25.3661C33.1005 25.1317 33.4185 25 33.75 25C34.0815 25 34.3995 25.1317 34.6339 25.3661C34.8683 25.6005 35 25.9185 35 26.25V30ZM13.75 22.5C13.75 20.8424 14.4085 19.2527 15.5806 18.0806C16.7527 16.9085 18.3424 16.25 20 16.25C21.6576 16.25 23.2473 16.9085 24.4194 18.0806C25.5915 19.2527 26.25 20.8424 26.25 22.5C26.25 24.1576 25.5915 25.7473 24.4194 26.9194C23.2473 28.0915 21.6576 28.75 20 28.75C18.3424 28.75 16.7527 28.0915 15.5806 26.9194C14.4085 25.7473 13.75 24.1576 13.75 22.5ZM8.285 19.91C8.59266 20.0333 8.93667 20.0293 9.24139 19.8989C9.54612 19.7686 9.78662 19.5226 9.91 19.215L9.9225 19.19L9.9925 19.04C10.06 18.9025 10.1725 18.6975 10.3325 18.44C10.7794 17.7417 11.3175 17.1061 11.9325 16.55C13.44 15.1825 15.96 13.75 20 13.75C24.0425 13.75 26.56 15.1825 28.065 16.55C28.8275 17.2425 29.345 17.9325 29.665 18.4425C29.8178 18.6829 29.9556 18.9325 30.0775 19.19C30.0775 19.19 30.6875 20.32 31.715 19.91C32.0226 19.7866 32.2686 19.5461 32.3989 19.2414C32.5293 18.9367 32.5333 18.5927 32.41 18.285V18.28L32.405 18.27L32.3925 18.245C32.3467 18.1356 32.2967 18.028 32.2425 17.9225C32.1012 17.6425 31.946 17.3696 31.7775 17.105C31.2109 16.2165 30.5282 15.4077 29.7475 14.7C27.8125 12.9425 24.705 11.25 19.9975 11.25C15.2925 11.25 12.185 12.9425 10.2525 14.7C9.47082 15.4075 8.78726 16.2163 8.22 17.105C7.98898 17.4704 7.78349 17.8513 7.605 18.245L7.595 18.27L7.59 18.2825C7.46675 18.5902 7.47073 18.9367 7.60105 19.2414C7.73138 19.5461 7.9774 19.7866 8.285 19.91Z" fill="#08088F"/>
</svg>
