<svg width="32" height="27" viewBox="0 0 32 27" fill="none"  xmlns="http://www.w3.org/2000/svg">
<path d="M15.5 0C11.8364 0 11.3758 0.016875 9.93631 0.081C8.49688 0.1485 7.51644 0.374625 6.6575 0.70875C5.75653 1.04763 4.94045 1.57921 4.26631 2.26631C3.57963 2.9408 3.04812 3.75678 2.70875 4.6575C2.37462 5.51475 2.14681 6.49687 2.081 7.93125C2.01688 9.37406 2 9.83306 2 13.5017C2 17.1669 2.01688 17.6259 2.081 19.0654C2.1485 20.5031 2.37462 21.4836 2.70875 22.3425C3.05469 23.2301 3.51538 23.9827 4.26631 24.7337C5.01556 25.4846 5.76819 25.947 6.65581 26.2913C7.51644 26.6254 8.49519 26.8532 9.93294 26.919C11.3741 26.9831 11.8331 27 15.5 27C19.1669 27 19.6243 26.9831 21.0654 26.919C22.5014 26.8515 23.4853 26.6254 24.3442 26.2913C25.2446 25.9522 26.0601 25.4206 26.7337 24.7337C27.4846 23.9827 27.9453 23.2301 28.2913 22.3425C28.6237 21.4836 28.8515 20.5031 28.919 19.0654C28.9831 17.6259 29 17.1669 29 13.5C29 9.83306 28.9831 9.37406 28.919 7.93294C28.8515 6.49688 28.6237 5.51475 28.2913 4.6575C27.9519 3.75676 27.4204 2.94077 26.7337 2.26631C26.0598 1.57895 25.2436 1.04734 24.3425 0.70875C23.4819 0.374625 22.4998 0.146812 21.0637 0.081C19.6226 0.016875 19.1653 0 15.4966 0H15.5017H15.5ZM14.2901 2.43338H15.5017C19.1062 2.43338 19.5331 2.44519 20.9557 2.511C22.2719 2.57006 22.9874 2.79113 23.4633 2.97506C24.0928 3.21975 24.5433 3.51338 25.0158 3.98587C25.4883 4.45837 25.7803 4.90725 26.0249 5.53837C26.2106 6.01256 26.4299 6.72806 26.489 8.04431C26.5548 9.46688 26.5683 9.89381 26.5683 13.4966C26.5683 17.0994 26.5548 17.5281 26.489 18.9506C26.4299 20.2669 26.2089 20.9807 26.0249 21.4566C25.8085 22.0427 25.463 22.5727 25.0141 23.0074C24.5416 23.4799 24.0928 23.7718 23.4616 24.0165C22.9891 24.2021 22.2736 24.4215 20.9557 24.4823C19.5331 24.5464 19.1062 24.5616 15.5017 24.5616C11.8972 24.5616 11.4686 24.5464 10.046 24.4823C8.72975 24.4215 8.01594 24.2021 7.54006 24.0165C6.95365 23.8004 6.42315 23.4555 5.98756 23.0074C5.53827 22.5721 5.19228 22.0415 4.97506 21.4549C4.79113 20.9807 4.57006 20.2652 4.511 18.9489C4.44688 17.5264 4.43338 17.0994 4.43338 13.4932C4.43338 9.88875 4.44688 9.4635 4.511 8.04094C4.57175 6.72469 4.79113 6.00919 4.97675 5.53331C5.22144 4.90387 5.51506 4.45331 5.98756 3.98081C6.46006 3.50831 6.90894 3.21638 7.54006 2.97169C8.01594 2.78606 8.72975 2.56669 10.046 2.50594C11.2914 2.44856 11.774 2.43169 14.2901 2.43V2.43338ZM22.7073 4.67438C22.4946 4.67438 22.2839 4.71628 22.0874 4.79769C21.8908 4.8791 21.7122 4.99843 21.5618 5.14886C21.4114 5.29929 21.292 5.47788 21.2106 5.67443C21.1292 5.87098 21.0873 6.08163 21.0873 6.29437C21.0873 6.50712 21.1292 6.71777 21.2106 6.91432C21.292 7.11087 21.4114 7.28946 21.5618 7.43989C21.7122 7.59032 21.8908 7.70965 22.0874 7.79106C22.2839 7.87247 22.4946 7.91438 22.7073 7.91438C23.137 7.91438 23.549 7.7437 23.8528 7.43989C24.1566 7.13608 24.3273 6.72403 24.3273 6.29437C24.3273 5.86472 24.1566 5.45267 23.8528 5.14886C23.549 4.84505 23.137 4.67438 22.7073 4.67438ZM15.5017 6.56775C14.5821 6.5534 13.6689 6.72213 12.8152 7.06411C11.9614 7.40609 11.1842 7.91449 10.5289 8.55971C9.87351 9.20493 9.35305 9.97408 8.99779 10.8224C8.64254 11.6707 8.45958 12.5812 8.45958 13.5008C8.45958 14.4205 8.64254 15.331 8.99779 16.1793C9.35305 17.0276 9.87351 17.7968 10.5289 18.442C11.1842 19.0872 11.9614 19.5956 12.8152 19.9376C13.6689 20.2796 14.5821 20.4483 15.5017 20.4339C17.3217 20.4055 19.0576 19.6626 20.3346 18.3655C21.6117 17.0684 22.3275 15.3211 22.3275 13.5008C22.3275 11.6806 21.6117 9.93332 20.3346 8.6362C19.0576 7.33908 17.3217 6.59615 15.5017 6.56775ZM15.5017 8.99944C16.6953 8.99944 17.84 9.4736 18.6841 10.3176C19.5281 11.1616 20.0023 12.3064 20.0023 13.5C20.0023 14.6936 19.5281 15.8384 18.6841 16.6824C17.84 17.5264 16.6953 18.0006 15.5017 18.0006C14.3081 18.0006 13.1633 17.5264 12.3193 16.6824C11.4753 15.8384 11.0011 14.6936 11.0011 13.5C11.0011 12.3064 11.4753 11.1616 12.3193 10.3176C13.1633 9.4736 14.3081 8.99944 15.5017 8.99944Z" fill="#F8F8F8"/>
</svg>
