<svg width="33" height="32" viewBox="0 0 33 32" fill="none" xmlns="http://www.w3.org/2000/svg">
<path d="M26.125 4C26.8543 4 27.5538 4.28095 28.0695 4.78105C28.5853 5.28115 28.875 5.95942 28.875 6.66667V25.3333C28.875 26.0406 28.5853 26.7189 28.0695 27.219C27.5538 27.719 26.8543 28 26.125 28H6.875C6.14565 28 5.44618 27.719 4.93046 27.219C4.41473 26.7189 4.125 26.0406 4.125 25.3333V6.66667C4.125 5.95942 4.41473 5.28115 4.93046 4.78105C5.44618 4.28095 6.14565 4 6.875 4H26.125ZM25.4375 24.6667V17.6C25.4375 16.4472 24.9652 15.3416 24.1246 14.5264C23.284 13.7113 22.1438 13.2533 20.955 13.2533C19.7863 13.2533 18.425 13.9467 17.765 14.9867V13.5067H13.9288V24.6667H17.765V18.0933C17.765 17.0667 18.6175 16.2267 19.6763 16.2267C20.1868 16.2267 20.6764 16.4233 21.0374 16.7734C21.3984 17.1235 21.6012 17.5983 21.6012 18.0933V24.6667H25.4375ZM9.46 11.4133C10.0727 11.4133 10.6602 11.1773 11.0934 10.7573C11.5266 10.3372 11.77 9.76742 11.77 9.17333C11.77 7.93333 10.7387 6.92 9.46 6.92C8.8437 6.92 8.25265 7.1574 7.81686 7.57999C7.38107 8.00257 7.13625 8.57571 7.13625 9.17333C7.13625 10.4133 8.18125 11.4133 9.46 11.4133ZM11.3713 24.6667V13.5067H7.5625V24.6667H11.3713Z" fill="blue"/>
</svg>
