<svg width="39" height="41" viewBox="0 0 39 41" fill="none" xmlns="http://www.w3.org/2000/svg">
<path d="M13.0527 16.5406L18.6987 3.14589C18.8007 2.90386 18.9499 2.68638 19.1369 2.50718C19.3239 2.32798 19.5447 2.19094 19.7852 2.10472C20.0258 2.01849 20.281 1.98495 20.5347 2.0062C20.7884 2.02745 21.0351 2.10303 21.2592 2.22819L31.4736 7.93709" stroke="#08088F" stroke-width="4" stroke-linecap="round" stroke-linejoin="round"/>
<path d="M22.2637 26.1V7.93701H37.0004V35.6594H22.2637V31.8356" stroke="#08088F" stroke-width="4" stroke-linecap="round" stroke-linejoin="round"/>
<path d="M2 38.5269C10.2894 38.5269 10.9986 33.4442 13.3565 33.0895C16.1408 32.6718 18.9767 32.4567 21.4368 31.8353C23.7163 31.2574 25.9513 30.505 28.1236 29.5841C28.4613 29.4428 28.7401 29.1825 28.9111 28.8489C29.4297 27.8156 30.359 25.5356 28.6376 25.2479C26.4013 24.8751 19.4824 27.6129 15.9336 27.1149C12.3848 26.6178 13.6319 24.1285 14.75 23.3809C17.7867 21.3534 21.342 22.2759 21.342 22.2759V13.6724C21.342 13.6724 7.8339 17.2572 2.92105 23.3809M27.7893 16.5402H36.9997" stroke="#08088F" stroke-width="4" stroke-linecap="round" stroke-linejoin="round"/>
</svg>
