<svg width="30" height="35" viewBox="0 0 30 35" fill="none" xmlns="http://www.w3.org/2000/svg">
<path d="M15.39 32.5961L13.5 34.7878L11.25 32.1787L9 34.7878L6.75 32.1787L4.5 34.7878L2.25 32.1787L0 34.7878V0L2.25 2.60908L4.5 0L6.75 2.60908L9 0L11.25 2.60908L13.5 0L15.75 2.60908L18 0L20.25 2.60908L22.5 0L24.75 2.60908L27 0V19.7421C26.055 19.3594 25.05 19.1333 24 19.1333V5.21817H3V29.5696H15C15 30.5611 15.15 31.6917 15.39 32.5961ZM4.5 22.6121V26.0908H15.525C15.915 24.7863 16.5 23.6209 17.31 22.6121H4.5ZM4.5 19.1333H22.5V15.6545H4.5V19.1333ZM4.5 12.1757H22.5V8.69695H4.5V12.1757ZM30 26.4909L28.26 24.0384L22.875 30.2828L20.49 27.5171L18.75 29.5696L22.875 34.7878" fill="#08088F"/>
</svg>
