<svg width="32" height="34" viewBox="0 0 32 34" fill="none" xmlns="http://www.w3.org/2000/svg">
<path d="M25.5982 9.80727C25.499 9.38949 25.217 9.07405 24.8946 8.97731C24.3227 8.80487 21.5432 8.41232 15.6682 8.41232C9.79319 8.41232 7.01497 8.80487 6.43922 8.97731C6.12066 9.07265 5.83866 9.38809 5.73813 9.80727C5.59583 10.4017 5.22374 12.8916 5.22374 16.8241C5.22374 20.7552 5.59583 23.2451 5.73813 23.8423C5.83736 24.2587 6.11936 24.5741 6.44052 24.6695C7.01497 24.8433 9.79188 25.2359 15.6669 25.2359C21.5419 25.2359 24.3214 24.8433 24.8959 24.6709C25.2144 24.5755 25.4964 24.2601 25.5969 23.8409C25.7406 23.2465 26.1113 20.7496 26.1113 16.8241C26.1113 12.8986 25.7406 10.4031 25.5982 9.80727ZM28.1271 9.1105C28.7237 11.6088 28.7237 16.8241 28.7237 16.8241C28.7237 16.8241 28.7237 22.0394 28.1271 24.5377C27.7955 25.9186 26.8255 27.0051 25.5969 27.3725C23.3657 28.0398 15.6669 28.0398 15.6669 28.0398C15.6669 28.0398 7.97324 28.0398 5.73813 27.3725C4.50438 26.9995 3.53566 25.9144 3.20797 24.5377C2.61133 22.0394 2.61133 16.8241 2.61133 16.8241C2.61133 16.8241 2.61133 11.6088 3.20797 9.1105C3.53958 7.72957 4.50961 6.64305 5.73813 6.27573C7.97455 5.6084 15.6682 5.6084 15.6682 5.6084C15.6682 5.6084 23.3657 5.6084 25.5969 6.27573C26.8294 6.64865 27.7994 7.73377 28.1271 9.1105ZM13.0571 21.731V11.9172L20.8904 16.8241L13.0571 21.731Z" fill="#F8F8F8"/>
</svg>
